<?xml version="1.0" encoding="UTF-8"?>
<svg xmlns="http://www.w3.org/2000/svg" viewBox="0 0 460.55 188.65">
  <defs>
    <style>
      .cls-1 {
        fill: #fff;
      }

      .cls-2, .cls-3 {
        fill: #375caa;
      }

      .cls-3, .cls-4, .cls-5 {
        font-family: Arial-BoldMT, Arial;
        font-size: 36px;
        font-weight: 700;
      }

      .cls-4 {
        stroke: #231f20;
      }

      .cls-4, .cls-5 {
        fill: none;
      }

      .cls-5 {
        stroke: #fff;
        stroke-linejoin: round;
        stroke-width: 8px;
      }
    </style>
  </defs>
  <g id="Layer_3" data-name="Layer 3">
    <rect class="cls-2" x="33.94" y="85.46" width="32.62" height="32.62"/>
    <rect class="cls-2" x="207.47" y="89.96" width="39.98" height="26.31"/>
    <rect class="cls-2" x="304.35" y="90.25" width="27.74" height="64.79"/>
    <rect class="cls-2" x="388.02" y="90.25" width="48.88" height="64.79"/>
  </g>
  <g id="Layer_1" data-name="Layer 1">
    <g>
      <g>
        <path class="cls-1" d="m74.11,181.87c-1.8,0-3.46-.97-4.35-2.53l-12.86-22.69c-5.58-9.88-7.96-13.46-8.98-14.73-1.13-1.4-2.25-2.34-3.32-2.79-.5-.21-2-.67-5.65-.76v38.51c0,2.76-2.24,5-5,5h-17.72c-2.76,0-5-2.24-5-5v-104.26c0-2.76,2.24-5,5-5h37.43c10.39,0,17.78,1.07,22.58,3.26,5.06,2.31,9.22,6.28,12.38,11.81,3.06,5.36,4.61,11.78,4.61,19.08,0,9.29-2.41,16.98-7.16,22.84-2.89,3.57-6.51,6.35-10.81,8.33,1.13,1.14,2.17,2.32,3.12,3.53,2.71,3.42,6.2,9.22,10.68,17.73l10.7,20.34c.81,1.55.76,3.41-.15,4.91s-2.53,2.42-4.28,2.42h-21.21Zm-26.99-70.17c10.51,0,13.29-.61,13.89-.8,1.08-.34,1.93-1.02,2.66-2.13.82-1.25,1.23-3.13,1.23-5.58,0-2.28-.4-4.03-1.19-5.2-.74-1.09-1.68-1.79-2.97-2.21-.27-.07-2.49-.54-12.89-.54h-8.92v16.46h8.18Z"/>
        <path class="cls-2" d="m53.65,72.61c9.57,0,16.41.94,20.51,2.81,4.1,1.87,7.47,5.12,10.11,9.74,2.64,4.62,3.96,10.16,3.96,16.61,0,8.16-2.02,14.72-6.04,19.7-4.03,4.98-9.75,8.11-17.18,9.39,3.81,2.66,6.96,5.56,9.45,8.71s5.88,8.81,10.18,16.96l10.69,20.34h-21.21l-12.86-22.69c-4.63-8.2-7.78-13.33-9.43-15.4-1.66-2.06-3.42-3.48-5.27-4.27-1.86-.78-4.83-1.17-8.94-1.17h-3.66v43.52h-17.72v-104.26h37.43m-19.7,44.09h13.18c8.06,0,13.18-.34,15.38-1.03,2.2-.69,3.98-2.07,5.35-4.16,1.37-2.08,2.05-4.86,2.05-8.32s-.68-5.99-2.05-8c-1.37-2.01-3.22-3.4-5.57-4.16-1.66-.52-6.47-.78-14.43-.78h-13.92v26.46m19.7-54.09H16.22c-5.52,0-10,4.48-10,10v104.26c0,5.52,4.48,10,10,10h17.72c5.52,0,10-4.48,10-10v-31.91s.06.07.08.1c.59.73,2.61,3.58,8.51,14.04l12.87,22.7c1.78,3.13,5.1,5.07,8.7,5.07h21.21c3.5,0,6.75-1.83,8.56-4.83,1.81-3,1.92-6.72.29-9.82l-10.69-20.34c-4.27-8.11-7.71-13.88-10.5-17.61,2.61-1.83,4.94-4,6.96-6.51,5.49-6.78,8.27-15.53,8.27-25.99,0-8.18-1.77-15.43-5.27-21.56-3.68-6.46-8.61-11.13-14.64-13.88-5.55-2.53-13.39-3.71-24.66-3.71h0Zm-9.7,37.64h3.92c7.96,0,10.77.28,11.57.39.06.04.09.08.15.17.08.14.32.89.32,2.38,0,1.78-.3,2.65-.42,2.84-.03.05-.06.08-.08.11-.78.15-3.73.56-12.28.56h-3.18v-6.46h0Z"/>
      </g>
      <g>
        <path class="cls-1" d="m165.11,181.87c-2.16,0-4.08-1.39-4.75-3.45l-6.58-20.16h-27.93l-6.19,20.08c-.65,2.1-2.58,3.53-4.78,3.53h-18.9c-1.6,0-3.11-.77-4.05-2.07s-1.2-2.97-.7-4.49l34.29-104.26c.67-2.05,2.59-3.44,4.75-3.44h18.83c2.14,0,4.05,1.37,4.74,3.4l35.29,104.26c.52,1.53.27,3.21-.67,4.52s-2.45,2.09-4.06,2.09h-19.27Zm-20.25-51.25l-5.3-16.86-5.2,16.86h10.5Z"/>
        <path class="cls-2" d="m149.09,72.61l35.29,104.26h-19.27l-7.71-23.61h-35.25l-7.28,23.61h-18.9l34.29-104.26h18.83m-21.5,63.01h24.08l-12.16-38.69-11.93,38.69m21.5-73.01h-18.83c-4.32,0-8.15,2.77-9.5,6.88l-34.29,104.26c-1,3.05-.48,6.39,1.4,8.99,1.88,2.6,4.89,4.14,8.1,4.14h18.9c4.39,0,8.26-2.86,9.56-7.05l5.1-16.56h20.61l5.46,16.72c1.34,4.11,5.18,6.9,9.51,6.9h19.27c3.22,0,6.25-1.55,8.13-4.17,1.88-2.62,2.38-5.98,1.35-9.03l-35.29-104.26c-1.37-4.06-5.18-6.79-9.47-6.79h0Z"/>
      </g>
      <g>
        <path class="cls-1" d="m251.65,181.87c-1.8,0-3.46-.97-4.35-2.53l-12.86-22.69c-5.58-9.88-7.96-13.46-8.98-14.73-1.13-1.4-2.24-2.34-3.32-2.79-.5-.21-2-.67-5.66-.76v38.51c0,2.76-2.24,5-5,5h-17.72c-2.76,0-5-2.24-5-5v-104.26c0-2.76,2.24-5,5-5h37.43c10.39,0,17.78,1.07,22.58,3.26,5.06,2.31,9.22,6.28,12.37,11.81,3.06,5.36,4.61,11.78,4.61,19.08,0,9.29-2.41,16.98-7.16,22.85-2.89,3.57-6.51,6.35-10.81,8.33,1.13,1.14,2.17,2.32,3.12,3.53,2.71,3.43,6.2,9.23,10.68,17.73l10.7,20.34c.81,1.55.76,3.41-.15,4.91-.91,1.5-2.53,2.42-4.28,2.42h-21.21Zm-26.99-70.17c10.51,0,13.29-.61,13.89-.8,1.08-.34,1.93-1.02,2.66-2.13.82-1.25,1.23-3.13,1.23-5.58,0-2.28-.4-4.03-1.19-5.2-.74-1.09-1.68-1.79-2.97-2.21-.28-.07-2.49-.54-12.89-.54h-8.92v16.46h8.18Z"/>
        <path class="cls-2" d="m231.19,72.61c9.57,0,16.41.94,20.51,2.81,4.1,1.87,7.47,5.12,10.11,9.74,2.64,4.62,3.96,10.16,3.96,16.61,0,8.16-2.01,14.72-6.04,19.7-4.03,4.98-9.75,8.11-17.17,9.39,3.81,2.66,6.96,5.56,9.45,8.71s5.88,8.81,10.18,16.96l10.69,20.34h-21.21l-12.86-22.69c-4.63-8.2-7.78-13.33-9.43-15.4-1.66-2.06-3.42-3.48-5.27-4.27-1.86-.78-4.83-1.17-8.94-1.17h-3.66v43.52h-17.72v-104.26h37.43m-19.7,44.09h13.18c8.06,0,13.18-.34,15.38-1.03,2.2-.69,3.98-2.07,5.35-4.16,1.37-2.08,2.05-4.86,2.05-8.32s-.68-5.99-2.05-8c-1.37-2.01-3.22-3.4-5.57-4.16-1.66-.52-6.47-.78-14.43-.78h-13.92v26.46m19.7-54.09h-37.43c-5.52,0-10,4.48-10,10v104.26c0,5.52,4.48,10,10,10h17.72c5.52,0,10-4.48,10-10v-31.91s.05.07.08.1c.59.74,2.61,3.58,8.51,14.04l12.87,22.7c1.78,3.13,5.1,5.07,8.7,5.07h21.21c3.5,0,6.75-1.83,8.56-4.83s1.92-6.72.29-9.82l-10.69-20.34c-4.27-8.1-7.71-13.88-10.5-17.61,2.61-1.83,4.94-4,6.96-6.51,5.49-6.78,8.27-15.53,8.27-25.99,0-8.18-1.77-15.43-5.27-21.56-3.68-6.46-8.61-11.13-14.64-13.88-5.55-2.53-13.39-3.71-24.66-3.71h0Zm-9.7,37.64h3.92c7.96,0,10.77.28,11.57.39.06.04.09.08.15.17.08.14.33.89.33,2.39,0,1.78-.3,2.65-.42,2.84-.03.05-.06.08-.08.11-.78.15-3.73.56-12.28.56h-3.18v-6.46h0Z"/>
      </g>
      <g>
        <path class="cls-1" d="m282.45,181.87c-2.76,0-5-2.24-5-5v-104.26c0-2.76,2.24-5,5-5h35.27c10.42,0,17.72.97,22.31,2.98,4.84,2.11,8.92,5.8,12.14,10.97,3.18,5.1,4.79,10.92,4.79,17.29,0,5.88-1.38,11.29-4.11,16.09-1.2,2.1-2.57,3.99-4.1,5.64,2.81,1.97,5.21,4.42,7.17,7.33,3.51,5.19,5.28,11.49,5.28,18.73,0,8.62-2.21,16.07-6.58,22.15-4.46,6.22-9.92,10.14-16.22,11.65-2.55.61-8.01,1.42-26,1.42h-29.96Zm34.24-27.64c9.27,0,11.73-.62,12.26-.81,1-.36,1.87-1.12,2.66-2.34.85-1.32,1.29-3.16,1.29-5.47s-.46-4.25-1.38-5.6c-.88-1.3-1.96-2.13-3.4-2.61-.88-.29-3.97-.98-13.56-.98h-9.38v17.81h11.51Zm-4.79-45.16c8.87,0,11.53-.19,12.33-.31,2.36-.37,3.41-1.33,4-2.02.91-1.08,1.38-2.75,1.38-4.98,0-1.99-.38-3.53-1.14-4.57-.9-1.24-1.67-1.54-2.17-1.66-.56-.13-3.37-.57-15.86-.57h-5.25v14.11h6.72Z"/>
        <path class="cls-2" d="m317.72,72.61c9.63,0,16.4.85,20.31,2.56,3.91,1.71,7.21,4.72,9.9,9.03,2.69,4.31,4.03,9.2,4.03,14.65,0,5.03-1.15,9.56-3.46,13.62-2.3,4.05-5.3,7.05-8.97,9,5.22,1.8,9.3,4.88,12.25,9.25,2.95,4.36,4.43,9.67,4.43,15.93,0,7.59-1.88,14-5.64,19.24-3.76,5.24-8.2,8.47-13.33,9.71-3.56.85-11.84,1.28-24.83,1.28h-29.96v-104.26h35.27m-17.54,41.46h11.72c7.03,0,11.38-.12,13.04-.36,3.03-.47,5.39-1.72,7.1-3.73,1.71-2.01,2.56-4.75,2.56-8.21,0-3.08-.7-5.58-2.09-7.5-1.39-1.92-3.08-3.12-5.05-3.59-1.98-.47-7.65-.71-17.03-.71h-10.25v24.11m0,45.16h16.51c7.24,0,11.89-.37,13.94-1.1,2.05-.73,3.78-2.18,5.17-4.33,1.39-2.15,2.09-4.88,2.09-8.19s-.75-6.21-2.24-8.41c-1.49-2.2-3.47-3.71-5.94-4.54-2.47-.83-7.52-1.24-15.15-1.24h-14.38v27.81m17.54-96.62h-35.27c-5.52,0-10,4.48-10,10v104.26c0,5.52,4.48,10,10,10h29.96c18.31,0,24.13-.83,27.16-1.56,7.51-1.81,13.94-6.38,19.13-13.6,4.99-6.95,7.52-15.38,7.52-25.07,0-8.26-2.07-15.51-6.14-21.53-1.3-1.93-2.76-3.68-4.38-5.26.53-.78,1.03-1.6,1.51-2.44,3.16-5.56,4.76-11.8,4.76-18.56,0-7.32-1.87-14.03-5.55-19.94-3.76-6.04-8.6-10.38-14.38-12.91-5.31-2.32-13.03-3.4-24.31-3.4h0Zm-7.54,37.35h.25c8.9,0,12.59.22,14.03.36.07.27.14.74.14,1.44,0,1.02-.14,1.58-.22,1.77-.1.07-.4.19-.91.28-.44.05-2.71.25-11.58.25h-1.72v-4.11h0Zm0,41.46h4.38c9.32,0,11.76.66,12.01.73.31.11.53.24.82.66.12.18.51.9.51,2.79,0,1.48-.25,2.39-.48,2.76-.11.16-.19.28-.26.35-.84.15-3.52.51-10.47.51h-6.51v-7.81h0Z"/>
      </g>
      <g>
        <path class="cls-1" d="m412.83,183.65c-9.6,0-18.23-2.35-25.65-6.98-7.44-4.65-13.38-11.63-17.66-20.75-4.18-8.9-6.3-19.44-6.3-31.32s2.15-22.81,6.39-31.61c4.32-8.96,10.08-15.8,17.11-20.31,7.07-4.54,15.55-6.84,25.22-6.84,11.64,0,21.19,3,28.4,8.92,7.24,5.94,11.93,14.64,13.94,25.84.47,2.64-1.22,5.18-3.83,5.77l-17.58,3.91c-.37.08-.73.12-1.09.12-2.25,0-4.29-1.53-4.85-3.81-1.06-4.31-2.87-7.45-5.54-9.61-2.62-2.12-5.71-3.15-9.45-3.15-6.05,0-10.8,2.21-14.52,6.74-3.91,4.77-5.9,12.5-5.9,22.96,0,11.37,2.21,19.98,6.57,25.59,3.39,4.4,7.87,6.53,13.7,6.53,2.78,0,5.75-.67,8.85-1.98,2.52-1.07,4.85-2.46,6.95-4.16v-5.91h-15.36c-2.76,0-5-2.24-5-5v-17.64c0-2.76,2.24-5,5-5h38.31c2.76,0,5,2.24,5,5v41.53c0,1.21-.44,2.38-1.24,3.29-4.32,4.93-10.41,9.19-18.12,12.65-7.7,3.45-15.56,5.2-23.36,5.2Z"/>
        <path class="cls-2" d="m411.95,70.83c10.5,0,18.91,2.6,25.23,7.79,6.32,5.19,10.39,12.81,12.2,22.86l-17.58,3.91c-1.32-5.36-3.74-9.46-7.25-12.3-3.52-2.84-7.72-4.27-12.6-4.27-7.57,0-13.7,2.86-18.38,8.57-4.69,5.71-7.03,14.43-7.03,26.14,0,12.56,2.54,22.12,7.62,28.66,4.35,5.64,10.23,8.46,17.65,8.46,3.47,0,7.07-.79,10.8-2.38,3.74-1.58,7.07-3.74,10-6.49v-13.19h-20.36v-17.64h38.31v41.53c-3.86,4.41-9.33,8.2-16.41,11.38-7.08,3.18-14.18,4.77-21.31,4.77-8.69,0-16.36-2.07-23-6.22-6.64-4.15-11.9-10.36-15.78-18.63-3.88-8.27-5.82-18-5.82-29.19s1.96-21.29,5.9-29.44c3.93-8.15,9.03-14.25,15.31-18.28,6.27-4.03,13.78-6.04,22.52-6.04m0-10c-10.65,0-20.04,2.57-27.93,7.63-7.82,5.03-14.19,12.54-18.91,22.35-4.57,9.48-6.89,20.85-6.89,33.78s2.28,23.87,6.77,33.44c4.69,10.01,11.27,17.7,19.54,22.87,8.22,5.14,17.74,7.74,28.3,7.74,8.51,0,17.06-1.9,25.41-5.64,8.37-3.76,15.05-8.44,19.84-13.92,1.59-1.82,2.47-4.16,2.47-6.58v-41.53c0-4.98-3.64-9.11-8.41-9.87,4.9-1.4,7.99-6.3,7.08-11.38-2.23-12.41-7.51-22.11-15.69-28.82-8.13-6.67-18.75-10.06-31.58-10.06h0Zm-.15,89.82c-4.3,0-7.3-1.41-9.73-4.56-3.68-4.75-5.54-12.33-5.54-22.56,0-9.15,1.65-16,4.76-19.79,2.79-3.4,6.07-4.91,10.65-4.91,2.58,0,4.59.65,6.31,2.04,1.79,1.45,3.04,3.71,3.83,6.92.29,1.17.77,2.24,1.41,3.19h-11.25c-5.52,0-10,4.48-10,10v17.64c0,5.52,4.48,10,10,10h7.49c-.34.16-.68.32-1.03.46-2.48,1.05-4.8,1.58-6.9,1.58h0Z"/>
      </g>
    </g>
  </g>
  <g id="Layer_2" data-name="Layer 2">
    <g>
      <text class="cls-4" transform="translate(4 34.88)"><tspan x="0" y="0">The</tspan></text>
      <text class="cls-5" transform="translate(4 34.88)"><tspan x="0" y="0">The</tspan></text>
      <text class="cls-3" transform="translate(4 34.88)"><tspan x="0" y="0">The</tspan></text>
    </g>
  </g>
</svg>
